<svg width="55" height="61" viewBox="0 0 55 61" fill="none" xmlns="http://www.w3.org/2000/svg">
<path d="M46.2103 12.4844H40.6347C40.3566 9.34813 38.8524 6.4257 36.4199 4.29585C33.9874 2.16599 30.804 0.984031 27.5002 0.984031C24.1963 0.984031 21.013 2.16599 18.5805 4.29585C16.148 6.4257 14.6437 9.34813 14.3656 12.4844H8.79003C6.72243 12.4844 4.73951 13.2669 3.2775 14.6597C1.81549 16.0525 0.994138 17.9415 0.994138 19.9113V52.5894C0.994138 54.5592 1.81549 56.4482 3.2775 57.841C4.73951 59.2338 6.72243 60.0163 8.79003 60.0163H46.2103C48.2779 60.0163 50.2608 59.2338 51.7228 57.841C53.1848 56.4482 54.0062 54.5592 54.0062 52.5894V19.9113C54.0062 17.9415 53.1848 16.0525 51.7228 14.6597C50.2608 13.2669 48.2779 12.4844 46.2103 12.4844ZM27.5002 3.94352C29.9781 3.95084 32.3671 4.82465 34.2134 6.39908C36.0598 7.97351 37.2351 10.139 37.5163 12.4844H17.484C17.7652 10.139 18.9405 7.97351 20.7869 6.39908C22.6333 4.82465 25.0222 3.95084 27.5002 3.94352ZM50.8878 52.5894C50.8878 53.7713 50.395 54.9047 49.5178 55.7404C48.6406 56.5761 47.4509 57.0455 46.2103 57.0455H8.79003C7.54947 57.0455 6.35972 56.5761 5.48251 55.7404C4.6053 54.9047 4.11249 53.7713 4.11249 52.5894V19.9113C4.11249 18.7294 4.6053 17.596 5.48251 16.7603C6.35972 15.9246 7.54947 15.4551 8.79003 15.4551H46.2103C47.4509 15.4551 48.6406 15.9246 49.5178 16.7603C50.395 17.596 50.8878 18.7294 50.8878 19.9113V52.5894Z" fill="white"/>
<path fill-rule="evenodd" clip-rule="evenodd" d="M41.5134 11.5004H46.2101C48.5293 11.5004 50.7609 12.3777 52.4119 13.9506C54.0643 15.5248 55 17.668 55 19.9111V52.5893C55 54.8324 54.0643 56.9756 52.4119 58.5497C50.7609 60.1227 48.5293 61 46.2101 61H8.78987C6.47066 61 4.23915 60.1227 2.58807 58.5497C0.93569 56.9756 0 54.8324 0 52.5893V19.9111C0 17.668 0.93569 15.5248 2.58807 13.9506C4.23915 12.3777 6.47066 11.5004 8.78987 11.5004H13.4866C13.9729 8.45185 15.5356 5.64803 17.9217 3.55876C20.5394 1.26678 23.9582 0 27.5 0C31.0418 0 34.4606 1.26678 37.0783 3.55876C39.4644 5.64803 41.0271 8.45185 41.5134 11.5004ZM40.6347 12.4844H46.2103C48.2779 12.4844 50.2608 13.2669 51.7228 14.6597C53.1848 16.0525 54.0062 17.9415 54.0062 19.9113V52.5894C54.0062 54.5592 53.1848 56.4482 51.7228 57.841C50.2608 59.2338 48.2779 60.0163 46.2103 60.0163H8.79003C6.72243 60.0163 4.73951 59.2338 3.2775 57.841C1.81549 56.4482 0.994138 54.5592 0.994138 52.5894V19.9113C0.994138 17.9415 1.81549 16.0525 3.2775 14.6597C4.73951 13.2669 6.72243 12.4844 8.79003 12.4844H14.3656C14.6437 9.34813 16.148 6.4257 18.5805 4.29585C21.013 2.16599 24.1963 0.984031 27.5002 0.984031C30.804 0.984031 33.9874 2.16599 36.4199 4.29585C38.8524 6.4257 40.3566 9.34813 40.6347 12.4844ZM33.5645 7.14433C31.9018 5.72651 29.7442 4.93456 27.5 4.92724C25.2558 4.93456 23.0982 5.72651 21.4355 7.14433C20.0682 8.31022 19.1146 9.83131 18.6793 11.5004H36.3207C35.8854 9.83131 34.9318 8.31022 33.5645 7.14433ZM37.3437 11.5004C36.8889 9.53769 35.7985 7.75068 34.2134 6.39908C32.3671 4.82465 29.9781 3.95084 27.5002 3.94352C25.0222 3.95084 22.6333 4.82465 20.7869 6.39908C19.2018 7.75068 18.1112 9.53769 17.6563 11.5004C17.5813 11.824 17.5238 12.1525 17.484 12.4844H37.5163C37.4765 12.1525 37.4187 11.824 37.3437 11.5004ZM48.8284 55.0313C49.5152 54.377 49.8937 53.4978 49.8937 52.5893V19.9111C49.8937 19.0026 49.5152 18.1234 48.8284 17.469C48.1403 16.8135 47.1991 16.4389 46.2101 16.4389H8.78987C7.80091 16.4389 6.85976 16.8135 6.17162 17.469C5.48478 18.1234 5.10631 19.0026 5.10631 19.9111V52.5893C5.10631 53.4978 5.48478 54.377 6.17162 55.0313C6.85976 55.6869 7.80091 56.0615 8.78987 56.0615H46.2101C47.1991 56.0615 48.1403 55.6869 48.8284 55.0313ZM49.5178 55.7404C50.395 54.9047 50.8878 53.7713 50.8878 52.5894V19.9113C50.8878 18.7294 50.395 17.596 49.5178 16.7603C48.6406 15.9246 47.4509 15.4551 46.2103 15.4551H8.79003C7.54947 15.4551 6.35972 15.9246 5.48251 16.7603C4.6053 17.596 4.11249 18.7294 4.11249 19.9113V52.5894C4.11249 53.7713 4.6053 54.9047 5.48251 55.7404C6.35972 56.5761 7.54947 57.0455 8.79003 57.0455H46.2103C47.4509 57.0455 48.6406 56.5761 49.5178 55.7404Z" fill="white"/>
</svg>
