<svg width="38" height="41" viewBox="0 0 38 41" fill="none" xmlns="http://www.w3.org/2000/svg">
<path d="M31.9271 8.39116H28.0749C27.8827 6.28317 26.8435 4.31891 25.1628 2.88737C23.4822 1.45583 21.2828 0.661398 19.0001 0.661398C16.7175 0.661398 14.518 1.45583 12.8374 2.88737C11.1568 4.31891 10.1175 6.28317 9.92536 8.39116H6.07311C4.64459 8.39116 3.27457 8.91708 2.26446 9.85323C1.25434 10.7894 0.686859 12.0591 0.686859 13.383V35.347C0.686859 36.6709 1.25434 37.9406 2.26446 38.8768C3.27457 39.8129 4.64459 40.3388 6.07311 40.3388H31.9271C33.3556 40.3388 34.7257 39.8129 35.7358 38.8768C36.7459 37.9406 37.3134 36.6709 37.3134 35.347V13.383C37.3134 12.0591 36.7459 10.7894 35.7358 9.85323C34.7257 8.91708 33.3556 8.39116 31.9271 8.39116ZM19.0001 2.65056C20.7122 2.65548 22.3627 3.2428 23.6384 4.30102C24.9141 5.35924 25.7261 6.81472 25.9204 8.39116H12.0799C12.2741 6.81472 13.0862 5.35924 14.3619 4.30102C15.6375 3.2428 17.2881 2.65548 19.0001 2.65056ZM35.1589 35.347C35.1589 36.1413 34.8184 36.9032 34.2123 37.4648C33.6062 38.0265 32.7842 38.3421 31.9271 38.3421H6.07311C5.216 38.3421 4.39399 38.0265 3.78792 37.4648C3.18185 36.9032 2.84136 36.1413 2.84136 35.347V13.383C2.84136 12.5886 3.18185 11.8268 3.78792 11.2651C4.39399 10.7034 5.216 10.3879 6.07311 10.3879H31.9271C32.7842 10.3879 33.6062 10.7034 34.2123 11.2651C34.8184 11.8268 35.1589 12.5886 35.1589 13.383V35.347Z" fill="#807E7E"/>
<path fill-rule="evenodd" clip-rule="evenodd" d="M28.682 7.72976H31.927C33.5294 7.72976 35.0711 8.31944 36.2119 9.37666C37.3535 10.4347 38 11.8752 38 13.3829V35.3469C38 36.8545 37.3535 38.2951 36.2119 39.3531C35.0711 40.4103 33.5294 41 31.927 41H6.073C4.47064 41 2.92887 40.4103 1.78812 39.3531C0.646476 38.2951 0 36.8545 0 35.3469V13.3829C0 11.8752 0.646476 10.4347 1.78812 9.37666C2.92887 8.31944 4.47064 7.72976 6.073 7.72976H9.31802C9.65403 5.68075 10.7337 3.79621 12.3823 2.39195C14.1908 0.851445 16.5529 0 19 0C21.4471 0 23.8092 0.851445 25.6177 2.39195C27.2663 3.79621 28.346 5.68075 28.682 7.72976ZM28.0749 8.39116H31.9271C33.3556 8.39116 34.7257 8.91708 35.7358 9.85323C36.7459 10.7894 37.3134 12.0591 37.3134 13.383V35.347C37.3134 36.6709 36.7459 37.9406 35.7358 38.8768C34.7257 39.8129 33.3556 40.3388 31.9271 40.3388H6.07311C4.64459 40.3388 3.27457 39.8129 2.26446 38.8768C1.25434 37.9406 0.686859 36.6709 0.686859 35.347V13.383C0.686859 12.0591 1.25434 10.7894 2.26446 9.85323C3.27457 8.91708 4.64459 8.39116 6.07311 8.39116H9.92536C10.1175 6.28317 11.1568 4.31891 12.8374 2.88737C14.518 1.45583 16.7175 0.661398 19.0001 0.661398C21.2828 0.661398 23.4822 1.45583 25.1628 2.88737C26.8435 4.31891 27.8827 6.28317 28.0749 8.39116ZM23.19 4.80193C22.0412 3.84896 20.5505 3.31667 19 3.31175C17.4495 3.31667 15.9588 3.84896 14.81 4.80193C13.8653 5.58556 13.2065 6.60793 12.9057 7.72976H25.0943C24.7935 6.60793 24.1347 5.58556 23.19 4.80193ZM25.8011 7.72976C25.4868 6.41058 24.7335 5.20947 23.6384 4.30102C22.3627 3.2428 20.7122 2.65548 19.0001 2.65056C17.2881 2.65548 15.6375 3.2428 14.3619 4.30102C13.2667 5.20947 12.5132 6.41058 12.1989 7.72976C12.1471 7.94725 12.1074 8.16804 12.0799 8.39116H25.9204C25.8929 8.16804 25.8529 7.94725 25.8011 7.72976ZM33.736 36.9883C34.2105 36.5485 34.472 35.9575 34.472 35.3469V13.3829C34.472 12.7723 34.2105 12.1813 33.736 11.7415C33.2605 11.3009 32.6103 11.0491 31.927 11.0491H6.073C5.38972 11.0491 4.73947 11.3009 4.26403 11.7415C3.78948 12.1813 3.528 12.7723 3.528 13.3829V35.3469C3.528 35.9575 3.78948 36.5485 4.26403 36.9883C4.73947 37.4289 5.38972 37.6807 6.073 37.6807H31.927C32.6103 37.6807 33.2605 37.4289 33.736 36.9883ZM34.2123 37.4648C34.8184 36.9032 35.1589 36.1413 35.1589 35.347V13.383C35.1589 12.5886 34.8184 11.8268 34.2123 11.2651C33.6062 10.7034 32.7842 10.3879 31.9271 10.3879H6.07311C5.216 10.3879 4.39399 10.7034 3.78792 11.2651C3.18185 11.8268 2.84136 12.5886 2.84136 13.383V35.347C2.84136 36.1413 3.18185 36.9032 3.78792 37.4648C4.39399 38.0265 5.216 38.3421 6.07311 38.3421H31.9271C32.7842 38.3421 33.6062 38.0265 34.2123 37.4648Z" fill="#807E7E"/>
</svg>
