<svg width="113" height="74" viewBox="0 0 113 74" fill="none" xmlns="http://www.w3.org/2000/svg">
<path d="M113 71.9603L99.3413 65.9224L79.7572 27.354V27.3503L81.186 17.8649L77.5632 23.0381L77.5087 22.9302L56.4831 52.7304L55.1634 50.8607L55.5164 51.1815L32.1964 17.8649L33.5413 26.7955L13.9568 66.3043L0 71.9603L31.5995 8.22458L31.2296 0L33.8437 3.69623L33.8605 3.66394L56.4831 35.7302L79.1057 3.66763L79.1269 3.71099L81.7535 0L81.3837 8.25349L113 71.9603ZM74.0627 36.4433V36.4469L69.8979 42.3228V54.8239C69.8979 61.1644 63.8798 66.3231 56.4831 66.3231C49.0865 66.3231 43.0684 61.1644 43.0684 54.8239V42.3228L38.1513 35.3808L34.1127 29.6812V54.8236C34.1127 65.3969 44.1486 73.9997 56.4831 73.9997C68.8177 73.9997 78.8536 65.3969 78.8536 54.8236V29.6812L74.0627 36.4433Z" fill="#E3A56D"/>
</svg>
