<svg width="18" height="18" fill="none" xmlns="http://www.w3.org/2000/svg"><path fill-rule="evenodd" clip-rule="evenodd" d="M15.377 2.616A8.926 8.926 0 009.037 0C4.098 0 .078 4.001.076 8.919a8.87 8.87 0 001.196 4.459L0 18l4.751-1.24a8.988 8.988 0 004.283 1.085h.004c4.939 0 8.96-4.001 8.962-8.919 0-2.383-.93-4.624-2.623-6.31zm-6.34 13.723h-.002a7.467 7.467 0 01-3.792-1.033l-.272-.161-2.82.736.753-2.736-.177-.28a7.37 7.37 0 01-1.139-3.946c.002-4.087 3.344-7.413 7.453-7.413 1.99.001 3.86.773 5.266 2.175a7.351 7.351 0 012.18 5.244c-.002 4.088-3.344 7.414-7.45 7.414z" fill="#555"/><path fill-rule="evenodd" clip-rule="evenodd" d="M13.124 10.787c-.224-.112-1.325-.651-1.53-.726-.206-.074-.355-.111-.504.112-.15.223-.579.725-.71.874-.13.149-.26.167-.485.056-.224-.112-.945-.347-1.8-1.106-.666-.591-1.116-1.321-1.246-1.544-.13-.223-.014-.344.098-.455.1-.1.224-.26.336-.39.112-.13.15-.224.224-.372.074-.15.037-.28-.019-.39-.056-.112-.504-1.21-.69-1.656-.182-.434-.367-.375-.504-.382a8.994 8.994 0 00-.43-.008.825.825 0 00-.597.279c-.205.223-.783.762-.783 1.859s.802 2.157.914 2.305c.112.15 1.58 2.4 3.826 3.366.534.23.951.366 1.276.47a3.08 3.08 0 001.41.087c.43-.064 1.326-.539 1.512-1.06.187-.52.187-.966.13-1.06-.055-.092-.204-.148-.428-.26z" fill="#555"/></svg>